<?xml version="1.0" encoding="UTF-8"?>
<svg viewBox="0 0 380.09879 381.29855" xmlns="http://www.w3.org/2000/svg" xmlns:xlink="http://www.w3.org/1999/xlink">
 <defs>
  <clipPath id="n">
   <path d="m70.687 108.06c9.1368-8.5229 83.658 17.974 107.55 33.585 14.819 9.6844-14.562 39.239-29.314 45.99s-44.012 1.8596-70.239-23.121c-16.656-15.864-17.379-47.699-7.9947-56.454z" fill-rule="evenodd"/>
  </clipPath>
  <clipPath id="m">
   <path d="m127.25 121.8c18.654-9.7886 42.258-19.999 56.153-22.193s5.8057 37.551-1.5228 52.487-43.086 46.513-71.762 36.792c-9.7078-3.291-26.371-7.4711-34.739-38.733-2.862-10.693 33.216-18.565 51.87-28.353z" fill-rule="evenodd"/>
  </clipPath>
  <linearGradient id="a">
   <stop stop-color="#fff" offset="0"/>
   <stop stop-color="#fff" stop-opacity="0" offset="1"/>
  </linearGradient>
  <linearGradient id="l" x1="410.11" x2="408.16" y1="561.35" y2="545.75" gradientUnits="userSpaceOnUse">
   <stop stop-color="#fff" offset="0"/>
   <stop stop-color="#cdc7cf" offset="1"/>
  </linearGradient>
  <linearGradient id="k" x1="383.6" x2="498.93" gradientUnits="userSpaceOnUse">
   <stop stop-color="#f00" offset="0"/>
   <stop stop-color="#f00" stop-opacity="0" offset="1"/>
  </linearGradient>
  <radialGradient id="e" cx="391.69" cy="277.22" r="157.26" gradientTransform="matrix(.82251 -.82591 .94135 .93749 -190.71 334.76)" gradientUnits="userSpaceOnUse">
   <stop stop-color="#f8fd0c" offset="0"/>
   <stop stop-color="#90ad0b" offset=".55932"/>
   <stop stop-color="#5c850b" offset=".75"/>
   <stop stop-color="#285d0b" offset="1"/>
  </radialGradient>
  <radialGradient id="d" cx="335.8" cy="340.94" r="32.324" gradientTransform="matrix(1 0 0 .91971 0 27.374)" gradientUnits="userSpaceOnUse">
   <stop stop-color="#0f0" offset="0"/>
   <stop stop-color="#007900" offset="1"/>
  </radialGradient>
  <radialGradient id="c" cx="153.02" cy="155.78" r="27.014" gradientTransform="matrix(.98004 -.81383 .85922 1.0347 -133.84 117.77)" gradientUnits="userSpaceOnUse">
   <stop stop-color="#ffffc4" offset="0"/>
   <stop stop-color="#fff" stop-opacity="0" offset="1"/>
  </radialGradient>
  <radialGradient id="b" cx="125.99" cy="175.6" r="34.234" gradientTransform="matrix(-.72173 .6879 -.84486 -.88642 365.28 240.41)" gradientUnits="userSpaceOnUse">
   <stop offset="0"/>
   <stop stop-opacity="0" offset="1"/>
  </radialGradient>
  <radialGradient id="j" cx="396.8" cy="215.43" r="101.24" gradientTransform="matrix(1 -1.0913 1.0142 1.0042 -220.13 412.2)" gradientUnits="userSpaceOnUse">
   <stop stop-color="#fff" stop-opacity=".85859" offset="0"/>
   <stop stop-color="#fff" stop-opacity="0" offset="1"/>
  </radialGradient>
  <radialGradient id="i" cx="442.38" cy="468.35" r="58.478" gradientTransform="matrix(3.5013 7.527e-7 -6.3706e-7 2.9634 -1106.5 -919.55)" gradientUnits="userSpaceOnUse" xlink:href="#a"/>
  <radialGradient id="h" cx="284.03" cy="474.91" r="59.426" gradientTransform="matrix(3.3667 -.075188 .069891 3.1295 -705.4 -989.97)" gradientUnits="userSpaceOnUse" xlink:href="#a"/>
  <radialGradient id="g" cx="437.91" cy="488.79" r="53.476" gradientTransform="matrix(-1.7687 .67608 -.1635 -.42772 1307.6 419.5)" gradientUnits="userSpaceOnUse" xlink:href="#a"/>
  <radialGradient id="f" cx="437.91" cy="488.79" r="53.476" gradientTransform="matrix(-1.7687 .67608 -.1635 -.42772 1164.7 421.59)" gradientUnits="userSpaceOnUse" xlink:href="#a"/>
 </defs>
 <g transform="translate(-176.61 -282.57)">
  <path transform="matrix(1.2085 0 0 1.2383 -107.57 72.005)" d="m549.69 323.99a157.26 153.96 0 1 1 -314.53 0 157.26 153.96 0 1 1 314.53 0z"/>
  <path transform="matrix(1.1763 0 0 1.2135 -94.611 79.71)" d="m549.69 323.99a157.26 153.96 0 1 1 -314.53 0 157.26 153.96 0 1 1 314.53 0z" fill="url(#e)"/>
  <path transform="matrix(1.4436 0 0 1.4326 -206.86 41.066)" d="m496.39 266.64a101.24 94.84 0 1 1 -202.47 0 101.24 94.84 0 1 1 202.47 0z" fill="url(#j)"/>
  <path d="m218.05 428.61c57.766-9.4453 85.969 32.049 143.6 29.93 53.44-1.9199 92.696-42.044 149.49-45.369s9.7081 6.9077-0.20455 8.3329-8.22 50.667-24.027 67.295-64.982 46.704-91.505 12.498-43.895-25.424-63.145-0.30373c-14.24 18.582-45.756 27.5-88.391-0.31425-28.907-18.858-16.898-61.773-24.928-61.957-22.26-0.50842-38.847-5.5764-0.8918-10.111z" fill-rule="evenodd" stroke="#000" stroke-width="1.1948"/>
  <path d="m231.24 434.57c9.1368-8.5229 83.658 17.974 107.55 33.585 14.819 9.6844-14.562 39.239-29.314 45.99s-44.012 1.8596-70.239-23.121c-16.656-15.864-17.379-47.699-7.9947-56.454z" fill="url(#h)" fill-rule="evenodd" stroke="#000" stroke-width="1.1948"/>
  <path d="m436.53 445.03c18.654-9.7886 42.258-19.999 56.153-22.193s5.8057 37.551-1.5228 52.487-43.086 46.513-71.762 36.792c-9.7078-3.291-26.371-7.4711-34.739-38.733-2.862-10.693 33.216-18.565 51.87-28.353z" fill="url(#i)" fill-rule="evenodd" stroke="#000" stroke-width="1.1948"/>
  <path d="m316.15 577.43c41.143-25.745 161.2-61.926 186.16-45.923s-16.188 77.234-29.677 86.975-101.17 70.972-156.48-41.052z" fill-rule="evenodd" stroke="#000" stroke-width="1.1948"/>
  <path d="m383.6 635.19s3.3724-52.881 52.61-69.58 62.727 6.2622 62.727 6.2622-11.466 37.573-51.261 54.968-62.727 9.7412-64.076 8.3496z" fill="url(#k)" fill-rule="evenodd"/>
  <path d="m497.62 537.69c-1.1392-1.2363-2.4506-2.4174-4.0938-3.4062-16.188-9.7412-107.73 17.394-123.92 24.352s-27.144 12.523-27.144 12.523l1.1562 2.7812 2.1562-1.4375s0.14997 1.2702 0.59375 3.1562c0.22189 0.94304 0.50684 2.0309 0.90625 3.1875s0.90995 2.3955 1.5312 3.5938 1.3624 2.3696 2.25 3.4375 1.9268 2.0157 3.125 2.7812 2.5718 1.3338 4.125 1.625c0.77662 0.14562 1.595 0.22395 2.4688 0.21875s1.8049-0.07249 2.7812-0.25c7.8106-1.4201 14.732-2.6686 19.969-4 2.6183-0.66567 4.7935-1.3504 6.4688-2.0938 0.83764-0.37167 1.5606-0.75269 2.125-1.1562s0.98373-0.83747 1.25-1.2812 0.42021-1.1952 0.46875-2.1562-0.00851-2.1228-0.125-3.4375c-0.23299-2.6294-0.73558-5.8129-1.3125-8.875-1.1538-6.1242-2.5938-11.812-2.5938-11.812s0.59524 1.6912 1.5938 4.1875 2.4074 5.8229 4.0938 9.0625c0.84319 1.6198 1.7618 3.2105 2.7188 4.6875s1.937 2.8225 2.9688 3.9375 2.1196 1.9973 3.1875 2.5312c0.53393 0.26696 1.0581 0.45064 1.5938 0.53125s1.0612 0.07064 1.5938-0.0625c4.2603-1.0651 15.642-3.3961 25.938-5.4375s19.5-3.8125 19.5-3.8125 0.36668-0.51554 0.84375-1.625 1.0743-2.8173 1.5625-5.125 0.87297-5.2178 0.90625-8.8125c0.01664-1.7973-0.06555-3.7705-0.25-5.9062s-0.46247-4.4523-0.90625-6.9375-0.68131-3.9573-0.71875-4.6562c-0.01872-0.34948 0.02493-0.51803 0.09375-0.5s0.1655 0.22966 0.3125 0.5625c0.58801 1.3314 1.7543 4.9584 3.2188 9.2188s3.2269 9.1522 4.9688 12.969c0.87092 1.9083 1.7346 3.5538 2.5625 4.7188 0.41397 0.58247 0.82957 1.0262 1.2188 1.3438s0.76997 0.5 1.125 0.5c1.4201 0 3.9037 0.39608 6.8438 0.5625 1.47 0.08321 3.035 0.11233 4.6562 0s3.2864-0.37778 4.9062-0.84375 3.1904-1.1473 4.6562-2.125c0.73294-0.48886 1.4592-1.0411 2.125-1.6875s1.2953-1.3637 1.875-2.1875 1.088-1.7604 1.5625-2.7812 0.89983-2.1373 1.25-3.375 0.63694-2.5881 0.84375-4.0625 0.33062-3.0817 0.375-4.8125c0.08534-3.3281 0.29308-5.8318 0.59375-7.8125z" fill="url(#l)" fill-rule="evenodd"/>
  <path d="m497.62 537.69c-0.30067 1.9807-0.50841 4.4844-0.59375 7.8125-0.04438 1.7308-0.16819 3.3381-0.375 4.8125s-0.49358 2.8248-0.84375 4.0625-0.77553 2.3541-1.25 3.375-0.98281 1.9575-1.5625 2.7812-1.2092 1.5411-1.875 2.1875-1.3921 1.1986-2.125 1.6875c-1.4659 0.97771-3.0364 1.659-4.6562 2.125s-3.285 0.73142-4.9062 0.84375-3.1862 0.08321-4.6562 0c-2.9401-0.16642-5.4236-0.5625-6.8438-0.5625-0.35503 0-0.73582-0.18242-1.125-0.5s-0.80478-0.76128-1.2188-1.3438c-0.82793-1.1649-1.6916-2.8105-2.5625-4.7188-1.7418-3.8165-3.5043-8.7084-4.9688-12.969s-2.6307-7.8874-3.2188-9.2188c-0.147-0.33284-0.24368-0.54447-0.3125-0.5625s-0.11247 0.15052-0.09375 0.5c0.03744 0.69896 0.27497 2.1711 0.71875 4.6562s0.7218 4.8018 0.90625 6.9375 0.26664 4.1089 0.25 5.9062c-0.03328 3.5946-0.41809 6.5048-0.90625 8.8125s-1.0854 4.0155-1.5625 5.125-0.84375 1.625-0.84375 1.625-9.2042 1.7711-19.5 3.8125-21.677 4.3724-25.938 5.4375c-0.53254 0.13314-1.0581 0.14311-1.5938 0.0625s-1.0598-0.26429-1.5938-0.53125c-1.0678-0.53393-2.1557-1.4162-3.1875-2.5312s-2.0118-2.4605-2.9688-3.9375-1.8756-3.0677-2.7188-4.6875c-1.6864-3.2396-3.0952-6.5662-4.0938-9.0625s-1.5938-4.1875-1.5938-4.1875 1.4399 5.6883 2.5938 11.812c0.57692 3.0621 1.0795 6.2456 1.3125 8.875 0.11649 1.3147 0.17354 2.4764 0.125 3.4375s-0.20248 1.7125-0.46875 2.1562-0.68556 0.87769-1.25 1.2812-1.2874 0.78458-2.125 1.1562c-1.6753 0.74334-3.8504 1.4281-6.4688 2.0938-5.2366 1.3314-12.158 2.5799-19.969 4-0.97632 0.17751-1.9076 0.2448-2.7812 0.25s-1.6921-0.07313-2.4688-0.21875c-1.5532-0.29123-2.9268-0.85947-4.125-1.625s-2.2374-1.7134-3.125-2.7812-1.6287-2.2393-2.25-3.4375-1.1318-2.4371-1.5312-3.5938-0.68436-2.2445-0.90625-3.1875c-0.44378-1.8861-0.59375-3.1562-0.59375-3.1562l-2.1562 1.4375 9.625 22.969 146.34-29.219s8.1146-19.057-1.9688-30z" fill="#b3b3b3" fill-rule="evenodd"/>
  <g transform="translate(309.28 323.23)" clip-path="url(#m)">
   <path transform="matrix(1.1763 0 0 1.2135 -266.97 -269.79)" d="m368.12 340.94a32.324 29.728 0 1 1 -64.647 0 32.324 29.728 0 1 1 64.647 0z" clip-path="none" fill="url(#d)"/>
   <path transform="matrix(1.134 0 0 1.2178 -14.885 -27.897)" d="m118.56 169.6 3.754-20.503-12.254 16.862 9.906-18.339-16.864 12.25 15.088-14.381-19.824 6.4388 18.794-9.0143-20.844-0.00239 20.659-2.7655-19.823-6.4434 20.503 3.754-16.862-12.254 18.339 9.906-12.25-16.864 14.381 15.088-6.4388-19.824 9.0143 18.794 0.0024-20.844 2.7655 20.659 6.4433-19.823-3.754 20.503 12.254-16.862-9.906 18.339 16.864-12.25-15.088 14.381 19.824-6.4388-18.794 9.0143 20.844 0.0024-20.659 2.7655 19.823 6.4433-20.503-3.754 16.862 12.254-18.339-9.906 12.25 16.864-14.381-15.088 6.4388 19.824-9.0143-18.794-0.00239 20.844-2.7655-20.659-6.4434 19.823z" fill="#004e00"/>
   <path transform="translate(-.46576,-.46576)" d="m135.54 144.41a6.9864 7.2193 0 1 1 -13.973 0 6.9864 7.2193 0 1 1 13.973 0z"/>
   <path transform="matrix(1.2155 0 0 .97619 -60.007 -31.023)" d="m181.18 173.98a27.014 29.343 0 1 1 -54.028 0 27.014 29.343 0 1 1 54.028 0z" fill="url(#c)" opacity=".89759"/>
   <path transform="translate(-.93152,.93152)" d="m162.55 147.67a34.234 29.11 0 1 1 -68.467 0 34.234 29.11 0 1 1 68.467 0z" fill="url(#b)" opacity=".89759"/>
   <path transform="matrix(.69667 0 0 .69667 45.944 52.802)" d="m117.84 160.94a6.9864 6.9864 0 1 1 -13.973 0 6.9864 6.9864 0 1 1 13.973 0z" fill="#fff" opacity=".50602"/>
   <path transform="matrix(.29667 0 0 .23 92.404 118.01)" d="m117.84 160.94a6.9864 6.9864 0 1 1 -13.973 0 6.9864 6.9864 0 1 1 13.973 0z" fill="#fff" opacity=".50602"/>
  </g>
  <g transform="translate(160.56 326.51)" clip-path="url(#n)">
   <path transform="matrix(1.1763 0 0 1.2135 -266.97 -269.79)" d="m368.12 340.94a32.324 29.728 0 1 1 -64.647 0 32.324 29.728 0 1 1 64.647 0z" clip-path="none" fill="url(#d)"/>
   <path transform="matrix(1.134 0 0 1.2178 -14.885 -27.897)" d="m118.56 169.6 3.754-20.503-12.254 16.862 9.906-18.339-16.864 12.25 15.088-14.381-19.824 6.4388 18.794-9.0143-20.844-0.00239 20.659-2.7655-19.823-6.4434 20.503 3.754-16.862-12.254 18.339 9.906-12.25-16.864 14.381 15.088-6.4388-19.824 9.0143 18.794 0.0024-20.844 2.7655 20.659 6.4433-19.823-3.754 20.503 12.254-16.862-9.906 18.339 16.864-12.25-15.088 14.381 19.824-6.4388-18.794 9.0143 20.844 0.0024-20.659 2.7655 19.823 6.4433-20.503-3.754 16.862 12.254-18.339-9.906 12.25 16.864-14.381-15.088 6.4388 19.824-9.0143-18.794-0.00239 20.844-2.7655-20.659-6.4434 19.823z" fill="#004e00"/>
   <path transform="translate(-.46576,-.46576)" d="m135.54 144.41a6.9864 7.2193 0 1 1 -13.973 0 6.9864 7.2193 0 1 1 13.973 0z"/>
   <path transform="matrix(1.2155 0 0 .97619 -60.007 -31.023)" d="m181.18 173.98a27.014 29.343 0 1 1 -54.028 0 27.014 29.343 0 1 1 54.028 0z" fill="url(#c)" opacity=".89759"/>
   <path transform="translate(-.93152,.93152)" d="m162.55 147.67a34.234 29.11 0 1 1 -68.467 0 34.234 29.11 0 1 1 68.467 0z" fill="url(#b)" opacity=".89759"/>
   <path transform="matrix(.69667 0 0 .69667 45.944 52.802)" d="m117.84 160.94a6.9864 6.9864 0 1 1 -13.973 0 6.9864 6.9864 0 1 1 13.973 0z" fill="#fff" opacity=".50602"/>
   <path transform="matrix(.29667 0 0 .23 92.404 118.01)" d="m117.84 160.94a6.9864 6.9864 0 1 1 -13.973 0 6.9864 6.9864 0 1 1 13.973 0z" fill="#fff" opacity=".50602"/>
  </g>
  <path d="m398.34 498.64c13.491 11.361 62.245 32.814 90.887-36.923 16.331-39.763-34.083-17.041-34.083-17.041s-68.875 24.142-69.585 30.532 12.071 24.142 12.781 23.432z" fill="url(#g)" fill-rule="evenodd"/>
  <path d="m255.43 500.73c13.491 11.361 62.245 32.814 90.887-36.923 16.331-39.763-34.083-17.041-34.083-17.041s-68.875 24.142-69.585 30.532 12.071 24.142 12.781 23.432z" fill="url(#f)" fill-rule="evenodd"/>
 </g>
</svg>
