<svg xmlns="http://www.w3.org/2000/svg" viewBox="0 0 74.17 104.91"><defs><style>.cls-1{fill:gray;}.cls-2{fill:#f2f2f2;}.cls-2,.cls-3{fill-opacity:0.99;}.cls-3{fill:#b3b3b3;}</style></defs><title>Element 2</title><g id="Ebene_2" data-name="Ebene 2"><g id="Ebene_1-2" data-name="Ebene 1"><polygon class="cls-1" points="0 0.01 0 104.91 74.17 104.91 74.17 23.78 54.77 0 0 0 0 0.01"/><path class="cls-2" d="M0,0H54.77q9.69,11.88,19.4,23.78v81.12H0Z"/><path class="cls-3" d="M54.77,0l19.4,23.78L55.1,23.12Z"/><path class="cls-1" d="M6.5,44.87V63.94H9.35V55.39h3.86v8.55h2.87V44.87H13.21v7.86H9.35V44.87Zm11.05,0v2.52h3.14V63.94h2.84V47.39h3.14V44.87Zm10.58,0V63.94h2.74V54.53a16.49,16.49,0,0,0-.17-2.07l2.48,9.74h1.45l2.46-9.74a16.21,16.21,0,0,0-.17,2.07v9.41h2.74V44.87H37L34,55.41a6.74,6.74,0,0,0-.07.86,4.33,4.33,0,0,0-.08-.86l-3-10.54Zm13.84,0V63.94h7.5V61.39H44.83V44.87Zm9.5,0-.31,9.28H57.5v7.34H54V57.8h-2.8v4.39c0,1.17.56,1.75,1.69,1.75h5.72a1.54,1.54,0,0,0,1.73-1.75V53.44a1.53,1.53,0,0,0-1.73-1.73H53.93l.18-4.34h6v-2.5Z"/></g></g></svg>